<?xml version="1.0" standalone="no"?>
<!DOCTYPE svg PUBLIC "-//W3C//DTD SVG 20010904//EN"
 "http://www.w3.org/TR/2001/REC-SVG-20010904/DTD/svg10.dtd">
<svg version="1.0" xmlns="http://www.w3.org/2000/svg"
 width="512.000000pt" height="512.000000pt" viewBox="0 0 512.000000 512.000000"
 preserveAspectRatio="xMidYMid meet">

<g transform="translate(0.000000,512.000000) scale(0.100000,-0.100000)"
fill="#000000" stroke="none">
<path d="M698 5100 c-326 -68 -584 -315 -671 -641 l-22 -84 0 -1810 c0 -1696
1 -1815 18 -1885 79 -338 353 -599 696 -664 74 -14 278 -16 1845 -16 1691 0
1765 1 1853 19 354 73 627 354 688 708 13 78 15 309 13 1874 l-3 1784 -23 79
c-94 331 -346 568 -677 637 -86 18 -170 19 -1860 18 -1676 0 -1775 -1 -1857
-19z m1762 -1310 l0 -1130 -1130 0 -1130 0 0 820 c0 902 0 908 61 1039 94 203
286 356 492 390 29 5 424 9 880 10 l827 1 0 -1130z m1916 1115 c144 -27 301
-122 389 -232 25 -32 64 -94 85 -138 71 -146 70 -135 70 -1055 l0 -820 -1130
0 -1130 0 0 1130 0 1130 819 0 c685 0 832 -2 897 -15z m-1916 -3575 l0 -1130
-820 0 c-920 0 -911 -1 -1055 70 -148 72 -255 182 -324 331 -61 131 -61 137
-61 1039 l0 820 1130 0 1130 0 0 -1130z m2460 310 c0 -920 1 -909 -70 -1055
-73 -149 -174 -250 -325 -321 -136 -64 -136 -64 -1045 -64 l-820 0 0 1130 0
1130 1130 0 1130 0 0 -820z"/>
<path d="M683 4516 c-176 -56 -267 -239 -202 -411 16 -43 37 -75 75 -112 l53
-51 3 -324 c3 -314 4 -324 27 -375 29 -66 111 -143 176 -169 47 -18 80 -19
515 -19 435 0 468 1 515 19 65 26 147 103 176 169 23 50 24 63 29 379 l5 327
40 34 c91 78 129 220 91 335 -23 68 -92 144 -164 179 l-57 28 -620 2 c-490 2
-629 -1 -662 -11z m1257 -201 c87 -45 81 -154 -11 -201 -82 -41 -79 -24 -79
-417 0 -384 -1 -389 -63 -427 -30 -19 -53 -20 -455 -20 -467 0 -464 0 -502 63
-19 30 -20 53 -20 382 0 396 3 378 -79 419 -50 26 -71 57 -71 107 0 41 15 66
53 89 31 19 55 20 615 20 498 0 587 -2 612 -15z"/>
<path d="M2947 4379 c-40 -24 -47 -67 -47 -296 0 -242 9 -323 44 -425 35 -101
81 -172 166 -258 84 -86 166 -138 279 -178 l76 -27 385 0 c374 0 387 1 450 23
162 56 300 199 353 367 20 63 22 91 22 288 l0 219 -33 29 -32 29 -203 0 c-215
0 -290 -11 -369 -51 l-42 -21 -30 38 c-83 108 -203 193 -338 242 -72 26 -78
26 -368 29 -203 2 -301 0 -313 -8z m594 -205 c112 -34 205 -97 270 -188 l28
-38 -23 -32 c-73 -97 -106 -220 -106 -398 l0 -128 -93 0 c-56 0 -115 6 -148
16 -181 53 -329 219 -358 404 -6 36 -11 136 -11 223 l0 157 193 0 c149 0 206
-4 248 -16z m939 -336 c0 -186 -32 -273 -130 -361 -79 -71 -133 -87 -301 -87
l-141 0 4 143 c3 130 6 147 31 202 44 94 116 162 210 195 41 15 81 19 190 20
l137 0 0 -112z"/>
<path d="M1281 2116 c-36 -20 -50 -55 -51 -125 0 -61 -1 -63 -22 -57 -13 4
-59 9 -103 12 -225 16 -442 -103 -537 -296 -55 -112 -71 -191 -72 -355 -1
-168 15 -247 79 -380 69 -145 169 -246 310 -315 140 -69 266 -87 388 -55 51
13 63 13 119 -1 217 -56 494 63 640 274 42 61 92 174 114 257 25 96 25 330 0
430 -56 230 -212 384 -436 431 -72 15 -200 14 -257 -2 -22 -6 -23 -4 -23 54 0
73 -14 109 -51 128 -34 17 -67 17 -98 0z m-93 -386 c93 -26 187 -25 292 1 104
27 185 21 270 -17 69 -31 142 -103 171 -170 91 -205 47 -511 -96 -663 -123
-132 -303 -186 -421 -126 -61 31 -87 31 -148 0 -112 -57 -275 -13 -404 109
-188 177 -217 585 -55 766 97 108 234 143 391 100z"/>
<path d="M3358 2095 c-104 -26 -187 -74 -274 -160 -87 -86 -138 -173 -165
-285 -20 -77 -20 -563 0 -640 53 -215 232 -395 443 -445 83 -19 276 -20 351 0
158 41 279 150 333 300 l22 60 73 7 c143 15 264 73 364 175 158 162 210 396
135 610 -64 182 -232 333 -421 378 -89 21 -774 21 -861 0z m874 -213 c120 -49
219 -177 238 -308 23 -170 -71 -340 -228 -412 -48 -22 -76 -27 -178 -32 -90
-4 -127 -10 -147 -23 -28 -18 -30 -23 -47 -121 -18 -107 -81 -182 -185 -222
-36 -13 -68 -16 -167 -12 -108 4 -130 8 -180 32 -121 58 -207 169 -227 296
-14 84 -14 416 0 500 24 150 147 285 293 321 17 4 198 7 401 6 362 -2 371 -3
427 -25z"/>
<path d="M4005 1578 c-56 -49 -40 -134 31 -164 29 -12 39 -12 68 0 102 43 76
186 -34 186 -26 0 -47 -7 -65 -22z"/>
</g>
</svg>
